<?xml version="1.0" encoding="UTF-8" standalone="no"?>
<svg
   xmlns:dc="http://purl.org/dc/elements/1.1/"
   xmlns:cc="http://creativecommons.org/ns#"
   xmlns:rdf="http://www.w3.org/1999/02/22-rdf-syntax-ns#"
   xmlns:svg="http://www.w3.org/2000/svg"
   xmlns="http://www.w3.org/2000/svg"
   xmlns:sodipodi="http://sodipodi.sourceforge.net/DTD/sodipodi-0.dtd"
   xmlns:inkscape="http://www.inkscape.org/namespaces/inkscape"
   width="700pt"
   height="700pt"
   version="1.1"
   viewBox="0 0 700 700"
   id="svg151"
   sodipodi:docname="mosfet-icon_ink.svg"
   inkscape:version="0.92.5 (2060ec1f9f, 2020-04-08)">
  <metadata
     id="metadata155">
    <rdf:RDF>
      <cc:Work
         rdf:about="">
        <dc:format>image/svg+xml</dc:format>
        <dc:type
           rdf:resource="http://purl.org/dc/dcmitype/StillImage" />
        <dc:title></dc:title>
      </cc:Work>
    </rdf:RDF>
  </metadata>
  <sodipodi:namedview
     pagecolor="#ffffff"
     bordercolor="#666666"
     borderopacity="1"
     objecttolerance="10"
     gridtolerance="10"
     guidetolerance="10"
     inkscape:pageopacity="0"
     inkscape:pageshadow="2"
     inkscape:window-width="1294"
     inkscape:window-height="704"
     id="namedview153"
     showgrid="false"
     inkscape:zoom="0.25285714"
     inkscape:cx="795.41947"
     inkscape:cy="150.28249"
     inkscape:window-x="72"
     inkscape:window-y="27"
     inkscape:window-maximized="1"
     inkscape:current-layer="svg151" />
  <defs
     id="defs65">
    <symbol
       id="u"
       overflow="visible">
      <path
         d="m24.047-1.4375c-1.2422 0.64844-2.5312 1.1328-3.875 1.4531-1.3438 0.33203-2.7461 0.5-4.2031 0.5-4.3672 0-7.8242-1.2188-10.375-3.6562-2.543-2.4375-3.8125-5.7422-3.8125-9.9219 0-4.1758 1.2695-7.4844 3.8125-9.9219 2.5508-2.4375 6.0078-3.6562 10.375-3.6562 1.457 0 2.8594 0.16797 4.2031 0.5 1.3438 0.32422 2.6328 0.80859 3.875 1.4531v5.4062c-1.25-0.85156-2.4844-1.4766-3.7031-1.875-1.2109-0.39453-2.4844-0.59375-3.8281-0.59375-2.418 0-4.3125 0.77344-5.6875 2.3125-1.375 1.543-2.0625 3.668-2.0625 6.375 0 2.7109 0.6875 4.8359 2.0625 6.375 1.375 1.543 3.2695 2.3125 5.6875 2.3125 1.3438 0 2.6172-0.19531 3.8281-0.59375 1.2188-0.40625 2.4531-1.0352 3.7031-1.8906z"
         id="path2" />
    </symbol>
    <symbol
       id="d"
       overflow="visible">
      <path
         d="m17.594-14.281c-0.55469-0.25781-1.1016-0.44531-1.6406-0.5625-0.54297-0.125-1.0898-0.1875-1.6406-0.1875-1.6055 0-2.8438 0.51562-3.7188 1.5469s-1.3125 2.5117-1.3125 4.4375v9.0469h-6.2656v-19.625h6.2656v3.2188c0.8125-1.2812 1.7383-2.2109 2.7812-2.7969 1.0508-0.59375 2.3047-0.89062 3.7656-0.89062 0.20703 0 0.42969 0.011719 0.67188 0.03125 0.25 0.011719 0.60938 0.046875 1.0781 0.10938z"
         id="path5" />
    </symbol>
    <symbol
       id="c"
       overflow="visible">
      <path
         d="m22.609-9.8594v1.7812h-14.672c0.15625 1.4688 0.6875 2.5742 1.5938 3.3125 0.91406 0.74219 2.1914 1.1094 3.8281 1.1094 1.3125 0 2.6602-0.19531 4.0469-0.59375 1.3828-0.39453 2.8047-0.98828 4.2656-1.7812v4.8438c-1.4805 0.5625-2.9648 0.98438-4.4531 1.2656-1.4805 0.28906-2.9609 0.4375-4.4375 0.4375-3.5547 0-6.3125-0.89844-8.2812-2.7031-1.9688-1.8125-2.9531-4.3477-2.9531-7.6094 0-3.1953 0.96094-5.7109 2.8906-7.5469 1.9375-1.832 4.5977-2.75 7.9844-2.75 3.082 0 5.5508 0.92969 7.4062 2.7812 1.8516 1.8555 2.7812 4.3398 2.7812 7.4531zm-6.4531-2.0938c0-1.1875-0.35156-2.1445-1.0469-2.875-0.6875-0.73828-1.5938-1.1094-2.7188-1.1094-1.2188 0-2.2109 0.34375-2.9688 1.0312-0.75 0.6875-1.2188 1.6719-1.4062 2.9531z"
         id="path8" />
    </symbol>
    <symbol
       id="b"
       overflow="visible">
      <path
         d="m11.812-8.8281c-1.3125 0-2.2969 0.22656-2.9531 0.67188-0.65625 0.4375-0.98438 1.0898-0.98438 1.9531 0 0.79297 0.26562 1.418 0.79688 1.875 0.53125 0.44922 1.2695 0.67188 2.2188 0.67188 1.1758 0 2.1641-0.42188 2.9688-1.2656 0.8125-0.85156 1.2188-1.9141 1.2188-3.1875v-0.71875zm9.5781-2.375v11.203h-6.3125v-2.9062c-0.84375 1.1875-1.793 2.0586-2.8438 2.6094-1.0547 0.53906-2.3359 0.8125-3.8438 0.8125-2.0312 0-3.6836-0.59375-4.9531-1.7812-1.2617-1.1875-1.8906-2.7266-1.8906-4.625 0-2.3008 0.78906-3.9883 2.375-5.0625 1.582-1.0703 4.0664-1.6094 7.4531-1.6094h3.7031v-0.5c0-0.98828-0.39844-1.7109-1.1875-2.1719-0.78125-0.46875-2-0.70312-3.6562-0.70312-1.3438 0-2.5938 0.13672-3.75 0.40625-1.1562 0.27344-2.2305 0.67969-3.2188 1.2188v-4.7969c1.3438-0.32031 2.6914-0.56641 4.0469-0.73438 1.3516-0.16406 2.707-0.25 4.0625-0.25 3.5391 0 6.0938 0.69922 7.6562 2.0938 1.5703 1.3984 2.3594 3.6641 2.3594 6.7969z"
         id="path11" />
    </symbol>
    <symbol
       id="a"
       overflow="visible">
      <path
         d="m9.8594-25.203v5.5781h6.4688v4.4844h-6.4688v8.3281c0 0.90625 0.17969 1.5234 0.54688 1.8438 0.36328 0.32422 1.082 0.48438 2.1562 0.48438h3.2344v4.4844h-5.3906c-2.4805 0-4.2344-0.51562-5.2656-1.5469-1.0312-1.0391-1.5469-2.7969-1.5469-5.2656v-8.3281h-3.125v-4.4844h3.125v-5.5781z"
         id="path14" />
    </symbol>
    <symbol
       id="g"
       overflow="visible">
      <path
         d="m16.375-16.75v-10.516h6.2969v27.266h-6.2969v-2.8438c-0.86719 1.1562-1.8203 2.0078-2.8594 2.5469-1.043 0.53906-2.2461 0.8125-3.6094 0.8125-2.418 0-4.4062-0.95703-5.9688-2.875-1.5547-1.9258-2.3281-4.4062-2.3281-7.4375 0-3.0195 0.77344-5.4883 2.3281-7.4062 1.5625-1.9258 3.5508-2.8906 5.9688-2.8906 1.3516 0 2.5508 0.27344 3.5938 0.8125 1.0508 0.54297 2.0078 1.3867 2.875 2.5312zm-4.1406 12.703c1.3438 0 2.3672-0.48828 3.0781-1.4688 0.70703-0.98828 1.0625-2.4141 1.0625-4.2812 0-1.8633-0.35547-3.2852-1.0625-4.2656-0.71094-0.98828-1.7344-1.4844-3.0781-1.4844-1.3359 0-2.3555 0.49609-3.0625 1.4844-0.71094 0.98047-1.0625 2.4023-1.0625 4.2656 0 1.8672 0.35156 3.293 1.0625 4.2812 0.70703 0.98047 1.7266 1.4688 3.0625 1.4688z"
         id="path17" />
    </symbol>
    <symbol
       id="k"
       overflow="visible">
      <path
         d="m13.453-4.0469c1.3438 0 2.3672-0.48828 3.0781-1.4688 0.70703-0.98828 1.0625-2.4141 1.0625-4.2812 0-1.8633-0.35547-3.2852-1.0625-4.2656-0.71094-0.98828-1.7344-1.4844-3.0781-1.4844s-2.375 0.49609-3.0938 1.4844c-0.71875 0.99219-1.0781 2.4141-1.0781 4.2656 0 1.8555 0.35938 3.2773 1.0781 4.2656 0.71875 0.99219 1.75 1.4844 3.0938 1.4844zm-4.1719-12.703c0.86328-1.1445 1.8203-1.9883 2.875-2.5312 1.0508-0.53906 2.2656-0.8125 3.6406-0.8125 2.4141 0 4.3984 0.96484 5.9531 2.8906 1.5508 1.918 2.3281 4.3867 2.3281 7.4062 0 3.0312-0.77734 5.5117-2.3281 7.4375-1.5547 1.918-3.5391 2.875-5.9531 2.875-1.375 0-2.5898-0.27344-3.6406-0.8125-1.0547-0.55078-2.0117-1.3984-2.875-2.5469v2.8438h-6.2656v-27.266h6.2656z"
         id="path20" />
    </symbol>
    <symbol
       id="f"
       overflow="visible">
      <path
         d="m0.4375-19.625h6.2812l5.2656 13.312 4.4844-13.312h6.2812l-8.25 21.484c-0.83594 2.1875-1.8047 3.7109-2.9062 4.5781-1.1055 0.875-2.5625 1.3125-4.375 1.3125h-3.625v-4.125h1.9688c1.0625 0 1.832-0.17188 2.3125-0.51562 0.48828-0.33594 0.86328-0.9375 1.125-1.8125l0.1875-0.54688z"
         id="path23" />
    </symbol>
    <symbol
       id="j"
       overflow="visible">
      <path
         d="m12.875-14.562c1.4141 0 2.4297-0.25781 3.0469-0.78125 0.61328-0.53125 0.92188-1.3984 0.92188-2.6094 0-1.1875-0.30859-2.0352-0.92188-2.5469-0.61719-0.51953-1.6328-0.78125-3.0469-0.78125h-2.8281v6.7188zm-2.8281 4.6562v9.9062h-6.75v-26.172h10.297c3.4453 0 5.9727 0.58594 7.5781 1.75 1.6133 1.1562 2.4219 2.9844 2.4219 5.4844 0 1.7305-0.42188 3.1523-1.2656 4.2656-0.83594 1.1055-2.0898 1.918-3.7656 2.4375 0.91406 0.21094 1.7383 0.6875 2.4688 1.4375 0.73828 0.74219 1.4766 1.8594 2.2188 3.3594l3.6719 7.4375h-7.1875l-3.1875-6.5c-0.64844-1.3125-1.3047-2.207-1.9688-2.6875-0.65625-0.47656-1.5312-0.71875-2.625-0.71875z"
         id="path26" />
    </symbol>
    <symbol
       id="i"
       overflow="visible">
      <path
         d="m22.75-11.953v11.953h-6.3125v-9.1094c0-1.7188-0.042969-2.8945-0.125-3.5312-0.074219-0.64453-0.19922-1.125-0.375-1.4375-0.25-0.40625-0.58984-0.72266-1.0156-0.95312-0.41797-0.22656-0.89062-0.34375-1.4219-0.34375-1.3125 0-2.3438 0.50781-3.0938 1.5156-0.75 1.0117-1.125 2.4141-1.125 4.2031v9.6562h-6.2656v-27.266h6.2656v10.516c0.94531-1.1445 1.9531-1.9883 3.0156-2.5312 1.0625-0.53906 2.2383-0.8125 3.5312-0.8125 2.2578 0 3.9766 0.69531 5.1562 2.0781 1.1758 1.3867 1.7656 3.4062 1.7656 6.0625z"
         id="path29" />
    </symbol>
    <symbol
       id="h"
       overflow="visible">
      <path
         d="m21.203-16.375c0.78906-1.207 1.7344-2.1289 2.8281-2.7656 1.0938-0.63281 2.2969-0.95312 3.6094-0.95312 2.25 0 3.9609 0.69531 5.1406 2.0781 1.1875 1.3867 1.7812 3.4062 1.7812 6.0625v11.953h-6.3125v-10.234c0.007812-0.15625 0.015625-0.3125 0.015625-0.46875 0.007813-0.16406 0.015625-0.39844 0.015625-0.70312 0-1.3945-0.20312-2.4062-0.60938-3.0312s-1.0703-0.9375-1.9844-0.9375c-1.1875 0-2.1094 0.49609-2.7656 1.4844-0.64844 0.98047-0.98047 2.3984-1 4.25v9.6406h-6.3125v-10.234c0-2.1758-0.1875-3.5781-0.5625-4.2031-0.36719-0.625-1.0273-0.9375-1.9844-0.9375-1.2109 0-2.1406 0.49609-2.7969 1.4844-0.65625 0.99219-0.98438 2.4023-0.98438 4.2344v9.6562h-6.2969v-19.625h6.2969v2.875c0.76953-1.1133 1.6562-1.9453 2.6562-2.5 1-0.5625 2.1016-0.84375 3.3125-0.84375 1.3516 0 2.5508 0.32812 3.5938 0.98438 1.0391 0.64844 1.8281 1.5586 2.3594 2.7344z"
         id="path32" />
    </symbol>
    <symbol
       id="t"
       overflow="visible">
      <path
         d="m3.2969-26.172h6.75v9.9844h9.9531v-9.9844h6.75v26.172h-6.75v-11.094h-9.9531v11.094h-6.75z"
         id="path35" />
    </symbol>
    <symbol
       id="s"
       overflow="visible">
      <path
         d="m3.0156-19.625h6.2656v19.625h-6.2656zm0-7.6406h6.2656v5.1094h-6.2656z"
         id="path38" />
    </symbol>
    <symbol
       id="r"
       overflow="visible">
      <path
         d="m15.938-27.266v4.1094h-3.4844c-0.88672 0-1.5078 0.16406-1.8594 0.48438-0.34375 0.32422-0.51562 0.88281-0.51562 1.6719v1.375h5.3594v4.4844h-5.3594v15.141h-6.2812v-15.141h-3.1094v-4.4844h3.1094v-1.375c0-2.1328 0.59375-3.7109 1.7812-4.7344 1.1953-1.0195 3.0469-1.5312 5.5469-1.5312z"
         id="path41" />
    </symbol>
    <symbol
       id="e"
       overflow="visible">
      <path
         d="m12.359-15.609c-1.3984 0-2.4609 0.5-3.1875 1.5-0.73047 0.99219-1.0938 2.4297-1.0938 4.3125 0 1.8867 0.36328 3.3281 1.0938 4.3281 0.72656 0.99219 1.7891 1.4844 3.1875 1.4844 1.3633 0 2.4062-0.49219 3.125-1.4844 0.72656-1 1.0938-2.4414 1.0938-4.3281 0-1.8828-0.36719-3.3203-1.0938-4.3125-0.71875-1-1.7617-1.5-3.125-1.5zm0-4.4844c3.375 0 6.0078 0.91406 7.9062 2.7344 1.8945 1.8125 2.8438 4.3359 2.8438 7.5625 0 3.2305-0.94922 5.7578-2.8438 7.5781-1.8984 1.8242-4.5312 2.7344-7.9062 2.7344-3.3984 0-6.0469-0.91016-7.9531-2.7344-1.9062-1.8203-2.8594-4.3477-2.8594-7.5781 0-3.2266 0.95312-5.75 2.8594-7.5625 1.9062-1.8203 4.5547-2.7344 7.9531-2.7344z"
         id="path44" />
    </symbol>
    <symbol
       id="q"
       overflow="visible">
      <path
         d="m3.2969-26.172h7.5312l9.5156 17.953v-17.953h6.4062v26.172h-7.5469l-9.5156-17.953v17.953h-6.3906z"
         id="path47" />
    </symbol>
    <symbol
       id="p"
       overflow="visible">
      <path
         d="m2.7969-7.6406v-11.984h6.3125v1.9531c0 1.0742-0.007813 2.4141-0.015625 4.0156-0.011719 1.6055-0.015625 2.6797-0.015625 3.2188 0 1.5742 0.039063 2.7109 0.125 3.4062 0.082031 0.6875 0.22266 1.1953 0.42188 1.5156 0.25 0.40625 0.58203 0.72656 1 0.95312 0.41406 0.21875 0.89453 0.32812 1.4375 0.32812 1.3008 0 2.3281-0.5 3.0781-1.5 0.75-1.0078 1.125-2.4102 1.125-4.2031v-9.6875h6.2656v19.625h-6.2656v-2.8438c-0.94922 1.1484-1.9531 1.9961-3.0156 2.5469-1.0547 0.53906-2.2148 0.8125-3.4844 0.8125-2.2734 0-4-0.69141-5.1875-2.0781-1.1875-1.3945-1.7812-3.4219-1.7812-6.0781z"
         id="path50" />
    </symbol>
    <symbol
       id="o"
       overflow="visible">
      <path
         d="m22.75-11.953v11.953h-6.3125v-9.1406c0-1.6953-0.042969-2.8633-0.125-3.5-0.074219-0.64453-0.19922-1.125-0.375-1.4375-0.25-0.40625-0.58984-0.72266-1.0156-0.95312-0.41797-0.22656-0.89062-0.34375-1.4219-0.34375-1.3125 0-2.3438 0.50781-3.0938 1.5156-0.75 1.0117-1.125 2.4141-1.125 4.2031v9.6562h-6.2656v-19.625h6.2656v2.875c0.94531-1.1445 1.9531-1.9883 3.0156-2.5312 1.0625-0.53906 2.2383-0.8125 3.5312-0.8125 2.2578 0 3.9766 0.69531 5.1562 2.0781 1.1758 1.3867 1.7656 3.4062 1.7656 6.0625z"
         id="path53" />
    </symbol>
    <symbol
       id="n"
       overflow="visible">
      <path
         d="m3.2969-26.172h11.203c3.3203 0 5.875 0.74219 7.6562 2.2188 1.7812 1.4805 2.6719 3.5898 2.6719 6.3281 0 2.7422-0.89062 4.8516-2.6719 6.3281-1.7812 1.4805-4.3359 2.2188-7.6562 2.2188h-4.4531v9.0781h-6.75zm6.75 4.8906v7.3125h3.7344c1.3008 0 2.3047-0.31641 3.0156-0.95312 0.71875-0.63281 1.0781-1.5352 1.0781-2.7031 0-1.1641-0.35938-2.0664-1.0781-2.7031-0.71094-0.63281-1.7148-0.95312-3.0156-0.95312z"
         id="path56" />
    </symbol>
    <symbol
       id="m"
       overflow="visible">
      <path
         d="m3.0156-19.625h6.2656v19.281c0 2.625-0.63281 4.6289-1.8906 6.0156-1.2617 1.3828-3.0898 2.0781-5.4844 2.0781h-3.0938v-4.125h1.0781c1.1953 0 2.0156-0.27344 2.4531-0.8125 0.44531-0.53125 0.67188-1.5859 0.67188-3.1562zm0-7.6406h6.2656v5.1094h-6.2656z"
         id="path59" />
    </symbol>
    <symbol
       id="l"
       overflow="visible">
      <path
         d="m18.875-19.016v5.125c-0.85547-0.58203-1.7148-1.0156-2.5781-1.2969-0.85547-0.28125-1.7422-0.42188-2.6562-0.42188-1.7617 0-3.1328 0.51172-4.1094 1.5312-0.96875 1.0234-1.4531 2.4492-1.4531 4.2812 0 1.8359 0.48438 3.2617 1.4531 4.2812 0.97656 1.0234 2.3477 1.5312 4.1094 1.5312 0.97656 0 1.9062-0.14453 2.7812-0.4375 0.88281-0.28906 1.7031-0.72266 2.4531-1.2969v5.1406c-0.98047 0.36719-1.9766 0.63281-2.9844 0.8125-1.0117 0.1875-2.0273 0.28125-3.0469 0.28125-3.543 0-6.3125-0.90625-8.3125-2.7188-1.9922-1.8203-2.9844-4.3516-2.9844-7.5938 0-3.2383 0.99219-5.7656 2.9844-7.5781 2-1.8125 4.7695-2.7188 8.3125-2.7188 1.0312 0 2.0469 0.089844 3.0469 0.26562 1 0.17969 1.9922 0.44922 2.9844 0.8125z"
         id="path62" />
    </symbol>
  </defs>
  <path
     inkscape:connector-curvature="0"
     id="path67"
     d="M 567.17337,171.79915 V 49.693892 c 0,-5.528122 -4.78039,-10.050203 -10.6243,-10.050203 -5.8439,0 -10.6243,4.522081 -10.6243,10.050203 V 160.84706 c -29.00644,-13.06301 -61.40451,-20.70177 -95.61826,-20.70177 -119.41591,0 -216.94899,89.34136 -222.57212,200.99845 l -202.388056,-0.006 c -5.8439,0 -10.624301,4.52208 -10.624301,10.0502 0,5.52813 4.780401,10.05021 10.624301,10.05021 H 227.73439 c 5.63008,111.65709 103.15621,200.99844 222.57212,200.99844 34.20783,0 66.6133,-7.53488 95.61826,-20.70176 v 111.15356 c 0,5.52813 4.7804,10.05021 10.6243,10.05021 5.84391,0 10.6243,-4.52208 10.6243,-10.05021 V 530.58313 c 63.63601,-37.1817 106.23709,-103.61379 106.23709,-179.38541 0,-75.77581 -42.60108,-142.2065 -106.23709,-179.38541 z m 0,334.8621 v -155.3787 c 0,-5.52812 -4.78039,-10.0502 -10.6243,-10.0502 h -54.18472 l 24.43396,-23.21722 c 4.14453,-3.92058 4.14453,-10.25247 0,-14.17306 -4.14454,-3.92058 -10.83813,-3.92058 -14.98267,0 l -39.41662,37.38468 H 450.40521 V 321.1269 c 0,-5.52812 -4.78039,-10.0502 -10.6243,-10.0502 -5.8439,0 -10.6243,4.52208 -10.6243,10.0502 v 60.30094 c 0,5.52812 4.7804,10.0502 10.6243,10.0502 5.84391,0 10.6243,-4.52208 10.6243,-10.0502 v -20.09985 h 22.31196 l 39.30564,37.08372 c 2.12717,1.90836 4.78039,2.9144 7.54342,2.9144 2.76303,0 5.41625,-1.00611 7.54342,-2.9144 4.14454,-3.92058 4.14454,-10.25247 0,-14.27104 l -24.2253,-22.91626 h 43.23738 v 90.4514 h -95.61826 v -20.09985 c 0,-5.52812 -4.7804,-10.0502 -10.6243,-10.0502 -5.84391,0 -10.6243,4.52208 -10.6243,10.0502 v 60.30094 c 0,5.52812 4.78039,10.0502 10.6243,10.0502 5.8439,0 10.6243,-4.52208 10.6243,-10.0502 v -20.09985 h 95.61826 v 47.53329 c -28.47373,14.572 -61.08636,22.81267 -95.61826,22.81267 -107.7287,0 -195.69951,-80.29719 -201.32263,-180.8972 h 137.5786 V 491.8727 c 0,5.52812 4.7804,10.0502 10.6243,10.0502 5.84391,0 10.6243,-4.52208 10.6243,-10.0502 l 0.0173,-281.38943 c 0,-5.52812 -4.78039,-10.0502 -10.6243,-10.0502 -5.8439,0 -10.6243,4.52208 -10.6243,10.0502 v 130.64689 h -137.5786 c 5.52605,-100.60001 93.59542,-180.8972 201.32263,-180.8972 34.52598,0 67.14454,8.24025 95.61826,22.81267 v 47.53329 h -95.61826 v -20.09985 c 0,-5.52812 -4.78039,-10.0502 -10.6243,-10.0502 -5.8439,0 -10.6243,4.52208 -10.6243,10.0502 v 60.30094 c 0,5.52812 4.7804,10.0502 10.6243,10.0502 5.84391,0 10.6243,-4.52208 10.6243,-10.0502 v -20.09985 h 106.23709 c 5.8439,0 10.6243,-4.52208 10.6243,-10.0502 V 195.8081 c 51.31248,34.67325 84.99499,91.35428 84.99499,155.3787 0,64.02443 -33.67659,120.70126 -84.99499,155.3787 z"
     style="stroke-width:1.43923354" />
</svg>
