<svg width="105" height="105" viewBox="0 0 105 105" fill="none" xmlns="http://www.w3.org/2000/svg">
<g filter="url(#filter0_d_0_1)">
<path d="M80.5875 40.2937C77.9114 34.1504 73.2942 29.0544 67.4438 25.7869C61.5935 22.5195 54.833 21.2611 48.1988 22.2045C41.5647 23.148 35.4231 26.2413 30.7156 31.0103C26.0082 35.7792 22.9948 41.9604 22.1375 48.6062C17.9663 49.6052 14.3072 52.1011 11.8551 55.6202C9.40298 59.1393 8.32861 63.4363 8.83602 67.6953C9.34343 71.9543 11.3973 75.8787 14.6075 78.7231C17.8178 81.5676 21.9609 83.134 26.25 83.125H74.375C79.6222 83.1105 84.6893 81.2104 88.6523 77.7712C92.6153 74.3321 95.21 69.583 95.9632 64.3901C96.7164 59.1972 95.5779 53.9066 92.7554 49.4833C89.9328 45.0599 85.6143 41.7984 80.5875 40.2937V40.2937ZM74.375 74.375H26.25C23.9293 74.375 21.7038 73.4531 20.0628 71.8122C18.4219 70.1712 17.5 67.9456 17.5 65.625C17.5 63.3043 18.4219 61.0788 20.0628 59.4378C21.7038 57.7969 23.9293 56.875 26.25 56.875C27.4103 56.875 28.5231 56.4141 29.3436 55.5936C30.1641 54.7731 30.625 53.6603 30.625 52.5C30.6362 47.3256 32.4812 42.3227 35.8324 38.38C39.1836 34.4374 43.8239 31.8104 48.9289 30.9657C54.0339 30.121 59.2731 31.1133 63.7156 33.7663C68.1581 36.4193 71.5164 40.5612 73.1937 45.4562C73.4504 46.1999 73.9028 46.8606 74.5034 47.3687C75.1039 47.8769 75.8304 48.2137 76.6062 48.3437C79.8131 48.9355 82.6848 50.6998 84.662 53.293C86.6392 55.8863 87.5802 59.1227 87.3017 62.3717C87.0232 65.6208 85.5452 68.6499 83.1555 70.8688C80.7659 73.0877 77.6358 74.3376 74.375 74.375V74.375Z" fill="#A687B7"/>
</g>
<path d="M64.4824 47.8564L57.9727 63.9053L57.6665 64.6626C57.2046 65.7046 56.4473 66.2256 55.3945 66.2256C54.5566 66.2256 53.9604 65.9946 53.606 65.5327C53.2515 65.0708 53.0259 64.2275 52.9292 63.0029L52.188 53.2866L48.8203 61.6011C47.4668 64.9312 46.4355 67.1924 45.7266 68.3848C45.0283 69.5879 44.1152 70.6299 42.9873 71.5107C41.3545 72.7783 39.48 73.4121 37.3638 73.4121C35.1079 73.4121 33.2764 72.7031 31.8691 71.2852C30.4727 69.8672 29.7744 68.0249 29.7744 65.7583C29.7744 62.729 30.8809 60.0811 33.0938 57.8145C34.2754 56.6006 35.7578 55.6177 37.541 54.8657C39.335 54.1138 41.0859 53.7378 42.7939 53.7378C43.6963 53.7378 44.4106 53.9258 44.937 54.3018C45.4634 54.667 45.7266 55.1665 45.7266 55.8003C45.7266 56.4448 45.5171 56.9282 45.0981 57.2505C44.6792 57.5728 43.9863 57.7769 43.0195 57.8628C40.8818 58.0669 39.1577 58.561 37.8472 59.3452C36.7622 60.0005 35.8975 60.8545 35.2529 61.9072C34.6191 62.96 34.3022 64.061 34.3022 65.2104C34.3022 66.4351 34.6138 67.3965 35.2368 68.0947C35.8706 68.8037 36.7407 69.1582 37.8472 69.1582C39.1255 69.1582 40.248 68.5996 41.2148 67.4824C42.1924 66.3652 43.2505 64.4048 44.3892 61.6011L50.77 45.8906C51.3394 44.4834 52.2041 43.7798 53.3643 43.7798C54.707 43.7798 55.4375 44.5801 55.5557 46.1807L56.3936 56.9121L60.7603 46.1807L61.0181 45.5361C61.437 44.5264 62.1729 44.0215 63.2256 44.0215L63.8862 44.0054H67.1895C68.6826 44.0054 69.4292 44.5103 69.4292 45.52C69.4292 46.2612 69.166 46.8359 68.6396 47.2441C68.1133 47.6523 67.3828 47.8564 66.4482 47.8564H64.4824Z" fill="#A687B7"/>
<path d="M68 45.875C70.0841 45.875 72.152 46 74.25 46" stroke="#A687B7" stroke-width="3.8" stroke-linecap="round"/>
<defs>
<filter id="filter0_d_0_1" x="-4" y="0" width="113" height="113" filterUnits="userSpaceOnUse" color-interpolation-filters="sRGB">
<feFlood flood-opacity="0" result="BackgroundImageFix"/>
<feColorMatrix in="SourceAlpha" type="matrix" values="0 0 0 0 0 0 0 0 0 0 0 0 0 0 0 0 0 0 127 0" result="hardAlpha"/>
<feOffset dy="4"/>
<feGaussianBlur stdDeviation="2"/>
<feComposite in2="hardAlpha" operator="out"/>
<feColorMatrix type="matrix" values="0 0 0 0 0 0 0 0 0 0 0 0 0 0 0 0 0 0 0.25 0"/>
<feBlend mode="normal" in2="BackgroundImageFix" result="effect1_dropShadow_0_1"/>
<feBlend mode="normal" in="SourceGraphic" in2="effect1_dropShadow_0_1" result="shape"/>
</filter>
</defs>
</svg>
