<svg width="24" height="24" viewBox="0 0 24 24" fill="none" xmlns="http://www.w3.org/2000/svg">
<path d="M21.64 13.0002C21.4956 12.8808 21.3207 12.8045 21.1351 12.7797C20.9494 12.755 20.7606 12.7828 20.59 12.8602C19.5326 13.344 18.3829 13.5931 17.22 13.5902C15.0689 13.5876 13.006 12.7346 11.4811 11.2173C9.9563 9.69991 9.09319 7.64126 9.08 5.49015C9.08456 4.81598 9.16847 4.1447 9.33 3.49015C9.36428 3.31569 9.35142 3.13524 9.29275 2.96741C9.23409 2.79957 9.13174 2.6504 8.99624 2.53528C8.86074 2.42016 8.69701 2.34325 8.5219 2.31247C8.34678 2.28168 8.16663 2.29814 8 2.36015C6.43232 3.06506 5.06957 4.15691 4.03976 5.53313C3.00994 6.90936 2.34688 8.52478 2.11285 10.2276C1.87882 11.9305 2.0815 13.6649 2.70187 15.2679C3.32223 16.8709 4.33991 18.2899 5.6593 19.3916C6.97869 20.4933 8.55647 21.2415 10.2444 21.566C11.9324 21.8904 13.6752 21.7804 15.3089 21.2464C16.9427 20.7123 18.414 19.7717 19.5844 18.5129C20.7548 17.2541 21.5861 15.7184 22 14.0502C22.0504 13.8591 22.0431 13.6575 21.9791 13.4706C21.915 13.2837 21.797 13.12 21.64 13.0002V13.0002ZM12.14 19.6902C10.4618 19.6783 8.8282 19.148 7.46299 18.1719C6.09778 17.1957 5.06766 15.8215 4.51368 14.2373C3.9597 12.6531 3.90893 10.9363 4.36834 9.32216C4.82774 7.70797 5.77485 6.27525 7.08 5.22015V5.49015C7.08265 8.17863 8.15181 10.7562 10.0529 12.6573C11.9539 14.5583 14.5315 15.6275 17.22 15.6302C17.9259 15.6327 18.63 15.559 19.32 15.4102C18.6299 16.7157 17.5965 17.808 16.3312 18.5693C15.0658 19.3306 13.6167 19.732 12.14 19.7302V19.6902Z" fill="white" fill-opacity="0.56"/>
</svg>
